name Walk3.mot
datacolumns 19
datarows 15
range 1.33500000 1.34900000
endheader

                time	   L_ground_force_vx	   L_ground_force_vy	   L_ground_force_vz	   L_ground_force_px	   L_ground_force_py	   L_ground_force_pz	   R_ground_force_vx	   R_ground_force_vy	   R_ground_force_vz	   R_ground_force_px	   R_ground_force_py	   R_ground_force_pz	   L_ground_torque_x	   L_ground_torque_y	   L_ground_torque_z	   R_ground_torque_x	   R_ground_torque_y	   R_ground_torque_z	
          1.33500000	          0.02238022	          0.05149042	         -0.00424616	         -0.00027301	          0.00000000	         -0.00001009	        -13.22041175	        397.49005281	        -34.36522510	          0.33625876	          0.00000000	          0.09174576	          0.00000000	         -0.00040668	          0.00000000	          0.00000000	          4.98504840	          0.00000000	
          1.33600000	          0.02042842	          0.04636329	         -0.00395141	         -0.00026020	          0.00000000	         -0.00000928	        -13.05873187	        396.21738341	        -33.96286314	          0.33694396	          0.00000000	          0.09172574	          0.00000000	         -0.00037937	          0.00000000	          0.00000000	          4.92191233	          0.00000000	
          1.33700000	          0.01856537	          0.04149689	         -0.00366680	         -0.00024750	          0.00000000	         -0.00000849	        -12.89429513	        395.01977652	        -33.56381487	          0.33760705	          0.00000000	          0.09170356	          0.00000000	         -0.00035294	          0.00000000	          0.00000000	          4.85947776	          0.00000000	
          1.33800000	          0.01679057	          0.03688745	         -0.00339253	         -0.00023493	          0.00000000	         -0.00000774	        -12.72693697	        393.89575365	        -33.16828511	          0.33824815	          0.00000000	          0.09167930	          0.00000000	         -0.00032742	          0.00000000	          0.00000000	          4.79769371	          0.00000000	
          1.33900000	          0.01510322	          0.03253053	         -0.00312875	         -0.00022255	          0.00000000	         -0.00000703	        -12.55650762	        392.84378155	        -32.77646514	          0.33886741	          0.00000000	          0.09165306	          0.00000000	         -0.00030284	          0.00000000	          0.00000000	          4.73651017	          0.00000000	
          1.34000000	          0.01350227	          0.02842113	         -0.00287558	         -0.00021038	          0.00000000	         -0.00000635	        -12.38287292	        391.86227909	        -32.38853187	          0.33946502	          0.00000000	          0.09162492	          0.00000000	         -0.00027920	          0.00000000	          0.00000000	          4.67587844	          0.00000000	
          1.34100000	          0.01198641	          0.02455373	         -0.00263307	         -0.00019845	          0.00000000	         -0.00000570	        -12.20591463	        390.94962447	        -32.00464682	          0.34004121	          0.00000000	          0.09159498	          0.00000000	         -0.00025652	          0.00000000	          0.00000000	          4.61575152	          0.00000000	
          1.34200000	          0.01055414	          0.02092237	         -0.00240123	         -0.00018679	          0.00000000	         -0.00000509	        -12.02553007	        390.10416231	        -31.62495522	          0.34059625	          0.00000000	          0.09156333	          0.00000000	         -0.00023479	          0.00000000	          0.00000000	          4.55608441	          0.00000000	
          1.34300000	          0.00920378	          0.01752071	         -0.00218003	         -0.00017541	          0.00000000	         -0.00000451	        -11.84163108	        389.32421010	        -31.24958536	          0.34113045	          0.00000000	          0.09153007	          0.00000000	         -0.00021403	          0.00000000	          0.00000000	          4.49683419	          0.00000000	
          1.34400000	          0.00793344	          0.01434206	         -0.00196940	         -0.00016433	          0.00000000	         -0.00000396	        -11.65414217	        388.60806417	        -30.87864849	          0.34164413	          0.00000000	          0.09149528	          0.00000000	         -0.00019422	          0.00000000	          0.00000000	          4.43795990	          0.00000000	
          1.34500000	          0.00674114	          0.01137947	         -0.00176924	         -0.00015358	          0.00000000	         -0.00000345	        -11.46299825	        387.95400573	        -30.51223921	          0.34213766	          0.00000000	          0.09145905	          0.00000000	         -0.00017537	          0.00000000	          0.00000000	          4.37942227	          0.00000000	
          1.34600000	          0.00562474	          0.00862578	         -0.00157940	         -0.00014316	          0.00000000	         -0.00000296	        -11.26814232	        387.36030728	        -30.15043634	          0.34261140	          0.00000000	          0.09142147	          0.00000000	         -0.00015745	          0.00000000	          0.00000000	          4.32118329	          0.00000000	
          1.34700000	          0.00458200	          0.00607362	         -0.00139974	         -0.00013308	          0.00000000	         -0.00000251	        -11.06952348	        386.82523919	        -29.79330434	          0.34306576	          0.00000000	          0.09138262	          0.00000000	         -0.00014046	          0.00000000	          0.00000000	          4.26320592	          0.00000000	
          1.34800000	          0.00361061	          0.00371551	         -0.00123007	         -0.00012336	          0.00000000	         -0.00000208	        -10.86709576	        386.34707583	        -29.44089513	          0.34350116	          0.00000000	          0.09134258	          0.00000000	         -0.00012439	          0.00000000	          0.00000000	          4.20545389	          0.00000000	
          1.34900000	          0.00270816	          0.00154386	         -0.00107018	         -0.00011400	          0.00000000	         -0.00000168	        -10.66081764	        385.92410109	        -29.09325032	          0.34391803	          0.00000000	          0.09130145	          0.00000000	         -0.00010921	          0.00000000	          0.00000000	          4.14789158	          0.00000000	
